# xmcd
#
# Track frame offsets:
#	150
#	23993
#	47697
#	68745
#	98019
#	108075
#	132164
#	153133
#	187932
#
# Disc length: 2785 seconds
# Revision: 0
# Processed by: cddbd v1.5.2PL0 Copyright (c) Steve Scherf et al.
# Submitted via: dBpowerAMP V12.0
#
DISCID=640adf09
DTITLE=John Mayall - Back To The Roots - CD2
DYEAR=1971
DGENRE=Blues
TTITLE0=Dream With Me
TTITLE1=Full Speed Ahead
TTITLE2=Mr. Censor Man
TTITLE3=Force Of Nature
TTITLE4=Boogie Albert
TTITLE5=Goodbye December
TTITLE6=Unanswered Questions
TTITLE7=Devil's Tricks
TTITLE8=Travelling
EXTD=
EXTT0=
EXTT1=
EXTT2=
EXTT3=
EXTT4=
EXTT5=
EXTT6=
EXTT7=
EXTT8=
PLAYORDER=
